<svg width="24" height="24" viewBox="0 0 24 24" fill="none" xmlns="http://www.w3.org/2000/svg">
<path fill-rule="evenodd" clip-rule="evenodd" d="M1.28516 3.00293C1.28516 2.54748 1.46608 2.11068 1.78814 1.78863C2.11019 1.46657 2.54699 1.28564 3.00244 1.28564H20.9964C21.4519 1.28564 21.8887 1.46657 22.2107 1.78863C22.5328 2.11068 22.7137 2.54748 22.7137 3.00293V20.9969C22.7137 21.4524 22.5328 21.8892 22.2107 22.2112C21.8887 22.5333 21.4519 22.7142 20.9964 22.7142H3.00244C2.54699 22.7142 2.11019 22.5333 1.78814 22.2112C1.46608 21.8892 1.28516 21.4524 1.28516 20.9969V3.00293ZM15.9766 21.8571V13.6465H18.7563L19.1724 10.4468H15.9766V8.40379C15.9766 7.47722 16.2359 6.84593 17.576 6.84593L19.2852 6.84507V3.98307C18.9894 3.9445 17.975 3.85707 16.7947 3.85707C14.3304 3.85707 12.6436 5.3485 12.6436 8.08707V10.4468H9.85658V13.6465H12.6436V21.8571H15.9766Z" fill="white"/>
</svg>
