<?xml version="1.0" encoding="utf-8"?>
<!-- Generator: Adobe Illustrator 16.0.0, SVG Export Plug-In . SVG Version: 6.00 Build 0)  -->
<!DOCTYPE svg PUBLIC "-//W3C//DTD SVG 1.1//EN" "http://www.w3.org/Graphics/SVG/1.1/DTD/svg11.dtd">
<svg version="1.1" id="레이어_1" xmlns="http://www.w3.org/2000/svg" xmlns:xlink="http://www.w3.org/1999/xlink" x="0px"
	 y="0px" width="590.867px" height="227.896px" viewBox="304.566 286.052 590.867 227.896"
	 enable-background="new 304.566 286.052 590.867 227.896" xml:space="preserve">
<g>
	<g>
		<path fill="#FFFFFF" d="M379.192,434.89c-13.532-0.058-25.821-8.563-25.94-24.044v-22.573h-48.686v22.98
			c2.128,44.789,30.665,65.059,74.863,64.524c48.214-0.593,73.325-26.523,73.03-60.147V286.052H404.6v124.735
			C404.481,425.913,392.961,434.89,379.192,434.89L379.192,434.89z M785.529,513.065v-52.117c1.36,1.301,2.78,2.779,4.493,4.313
			c5.498,4.9,14.121,10.104,33.387,10.161c31.786,0.121,53.473-25.583,53.703-65.937c0.301-43.136-15.891-74.158-56.071-74.217
			c-17.604,0-26.529,6.086-35.512,17.076V339.29h-44.552v173.776L785.529,513.065L785.529,513.065z M831.562,406.352
			c0,17.077-4.727,37.229-23.519,37.104c-21.979-0.175-24.755-20.562-24.755-37.104c0.058-15.774,5.673-36.34,24.462-36.398
			C828.193,369.953,831.622,388.625,831.562,406.352L831.562,406.352z M730.878,430.697h-43.605
			c-0.175,0.296-0.355,0.709-0.592,1.18c-0.709,1.363-1.773,3.251-3.664,5.498c-2.187,2.484-6.262,5.551-17.783,5.551
			c-9.515,0-20.442-8.507-19.383-25.345h85.323l0,0c0,0,1.123-4.256,0.768-11.758c-1.951-47.565-24.223-69.314-66.593-69.368
			c-43.898,0-64.935,34.152-64.935,69.78c0,42.658,26.648,70.135,65.231,70.135C715.219,476.37,729.342,447.594,730.878,430.697
			L730.878,430.697z M686.384,388.038h-40.945c0-3.843,0.062-4.197,1.063-7.682c2.662-9.104,12.173-14.185,18.731-14.185
			c12.937,0,19.082,8.865,20.442,14.422C686.563,384.137,686.445,387.208,686.384,388.038L686.384,388.038z M591.905,430.639
			l-43.605,0.06c-0.179,0.296-0.355,0.709-0.592,1.18c-0.708,1.3-1.773,3.251-3.722,5.439c-2.187,2.479-6.204,5.551-17.725,5.551
			c-9.516,0-20.503-8.511-19.384-25.345h85.32l0,0c0,0,1.064-4.197,0.771-11.699c-1.95-47.565-24.281-69.368-66.651-69.368
			c-43.844-0.063-64.878,34.152-64.878,69.722c0,42.658,26.591,70.192,65.233,70.134
			C576.189,476.313,590.369,447.536,591.905,430.639L591.905,430.639z M547.414,388.038h-40.949c0-3.843,0-4.197,1.065-7.74
			c2.658-9.104,12.17-14.125,18.73-14.125c12.938,0,19.083,8.865,20.383,14.359C547.53,384.137,547.414,387.208,547.414,388.038
			L547.414,388.038z M875.283,513.948c11.112,0,20.149-8.979,20.149-20.09c0-11.104-9.037-20.144-20.149-20.144
			c-11.107,0-20.088,9.04-20.088,20.144C855.195,504.971,864.176,513.948,875.283,513.948L875.283,513.948z M875.283,510.348
			c-9.099,0-16.482-7.391-16.482-16.488c0-9.099,7.384-16.479,16.482-16.479c9.104,0,16.485,7.381,16.485,16.479
			C891.769,502.957,884.387,510.348,875.283,510.348L875.283,510.348z M871.147,495.334h3.664c3.842,0,5.021,1.422,5.14,6.443
			c0,0.824,0.296,2.306,0.592,2.835h4.313c-0.471-1.005-0.824-5.494-0.824-5.494c-0.18-2.246-0.534-3.251-1.479-4.14
			c-0.83-0.824-1.654-1.058-3.548-1.179c3.249-0.593,5.792-2.01,5.792-5.73c0-4.844-3.604-6.381-7.978-6.381h-10.104v22.924h4.432
			V495.334L871.147,495.334z M871.147,491.971v-6.734h4.785c2.955,0,4.434,1.121,4.434,3.368c0,2.065-1.596,3.366-4.195,3.366
			H871.147L871.147,491.971z"/>
	</g>
</g>
</svg>
