<svg width="32" height="32" viewBox="0 0 32 32" fill="none" xmlns="http://www.w3.org/2000/svg">
<path d="M9.25 29C7.8 29 6.5625 28.5558 5.5375 27.6675C4.5125 26.7792 4 25.7067 4 24.45V7.55C4 6.29333 4.5125 5.22083 5.5375 4.3325C6.5625 3.44417 7.8 3 9.25 3H28V22.5C27.375 22.5 26.844 22.6898 26.407 23.0694C25.97 23.449 25.751 23.9092 25.75 24.45C25.75 24.9917 25.969 25.4523 26.407 25.8319C26.845 26.2115 27.376 26.4009 28 26.4V29H9.25ZM10 19.9H13V5.6H10V19.9ZM9.25 26.4H23.2375C23.0875 26.0967 22.969 25.7881 22.882 25.4744C22.795 25.1607 22.751 24.8192 22.75 24.45C22.75 24.1033 22.7875 23.7675 22.8625 23.4425C22.9375 23.1175 23.0625 22.8033 23.2375 22.5H9.25C8.6 22.5 8.0625 22.6898 7.6375 23.0694C7.2125 23.449 7 23.9092 7 24.45C7 25.0133 7.2125 25.4792 7.6375 25.8475C8.0625 26.2158 8.6 26.4 9.25 26.4Z" fill="white"/>
</svg>
