<svg width="32" height="32" viewBox="0 0 32 32" fill="none" xmlns="http://www.w3.org/2000/svg">
<path d="M7.42857 3H24.5714C25.4807 3 26.3528 3.27393 26.9958 3.76152C27.6388 4.24912 28 4.91044 28 5.6V26.4C28 27.0896 27.6388 27.7509 26.9958 28.2385C26.3528 28.7261 25.4807 29 24.5714 29H7.42857C6.51926 29 5.64719 28.7261 5.00421 28.2385C4.36122 27.7509 4 27.0896 4 26.4V5.6C4 4.91044 4.36122 4.24912 5.00421 3.76152C5.64719 3.27393 6.51926 3 7.42857 3ZM7.42857 5.6V10.8H24.5714V5.6H7.42857ZM7.42857 13.4V16H10.8571V13.4H7.42857ZM14.2857 13.4V16H17.7143V13.4H14.2857ZM21.1429 13.4V16H24.5714V13.4H21.1429ZM7.42857 18.6V21.2H10.8571V18.6H7.42857ZM14.2857 18.6V21.2H17.7143V18.6H14.2857ZM21.1429 18.6V21.2H24.5714V18.6H21.1429ZM7.42857 23.8V26.4H10.8571V23.8H7.42857ZM14.2857 23.8V26.4H17.7143V23.8H14.2857ZM21.1429 23.8V26.4H24.5714V23.8H21.1429Z" fill="white"/>
</svg>
