<svg width="32" height="32" viewBox="0 0 32 32" fill="none" xmlns="http://www.w3.org/2000/svg">
<path d="M20.2545 4C16.1091 4.10909 12.7273 7.49091 12.7273 11.6364C12.7273 15.8909 16.1091 19.2727 20.3636 19.2727C24.6182 19.2727 28 15.8909 28 11.6364C28 7.38182 24.6182 4 20.2545 4ZM20.3636 6.18182C23.4182 6.18182 25.8182 8.58182 25.8182 11.6364C25.8182 14.6909 23.4182 17.0909 20.3636 17.0909C17.3091 17.0909 14.9091 14.6909 14.9091 11.6364C14.9091 8.58182 17.3091 6.18182 20.3636 6.18182ZM19.2727 7.27273V12.7273L23.2 15.1273L24.0727 13.8182L20.9091 11.9636V7.27273H19.2727ZM7.92727 16.8727C9.45455 19.9273 12.0727 22.5455 15.1273 24.0727L17.5273 21.6727C17.8545 21.3455 18.2909 21.2364 18.6182 21.4545C19.8182 21.8909 21.1273 22.1091 22.5455 22.1091C23.0909 22.1091 23.6364 22.6545 23.6364 23.2V26.9091C23.6364 27.4545 23.0909 28 22.5455 28C12.2909 28 4 19.7091 4 9.45455C4 8.8 4.54545 8.36364 5.09091 8.36364H8.90909C9.56364 8.36364 10 8.8 10 9.45455C10 10.7636 10.2182 12.0727 10.6545 13.3818C10.7636 13.8182 10.6545 14.1455 10.4364 14.4727L7.92727 16.8727Z" fill="white"/>
</svg>
