<svg width="32" height="32" viewBox="0 0 32 32" fill="none" xmlns="http://www.w3.org/2000/svg">
<path d="M23.4026 5.48386L24.0816 9.9226L27.9889 11.981L26.0186 16.0058L28 20.0305L24.0594 22.0889L23.3803 26.5276L19.0501 25.8262L15.9666 29L12.872 25.7802L8.57514 26.5161L7.88497 22.0429L4 19.996L5.98145 15.9713L4.01113 11.981L7.91837 9.8996L8.5974 5.49536L12.9054 6.23131L16 3L19.0835 6.18532L23.4026 5.48386ZM13.2171 10.2561C12.7742 10.2561 12.3495 10.4378 12.0364 10.7613C11.7232 11.0848 11.5473 11.5235 11.5473 11.981C11.5473 12.4385 11.7232 12.8772 12.0364 13.2007C12.3495 13.5242 12.7742 13.7059 13.2171 13.7059C13.6599 13.7059 14.0846 13.5242 14.3978 13.2007C14.7109 12.8772 14.8868 12.4385 14.8868 11.981C14.8868 11.5235 14.7109 11.0848 14.3978 10.7613C14.0846 10.4378 13.6599 10.2561 13.2171 10.2561ZM18.7829 18.3056C18.3401 18.3056 17.9154 18.4873 17.6022 18.8108C17.2891 19.1343 17.1132 19.573 17.1132 20.0305C17.1132 20.488 17.2891 20.9267 17.6022 21.2502C17.9154 21.5737 18.3401 21.7554 18.7829 21.7554C19.2258 21.7554 19.6505 21.5737 19.9636 21.2502C20.2768 20.9267 20.4527 20.488 20.4527 20.0305C20.4527 19.573 20.2768 19.1343 19.9636 18.8108C19.6505 18.4873 19.2258 18.3056 18.7829 18.3056ZM12.0037 21.7554L21.5659 11.8775L19.9963 10.2561L10.4341 20.134L12.0037 21.7554Z" fill="white"/>
</svg>
